<svg xmlns="http://www.w3.org/2000/svg" width="32.03" height="32.03" viewBox="0 0 32.03 32.03"><defs><style>.a{fill:rgba(0,0,0,0);}.b{fill:#c3c6d1;}</style></defs><g transform="translate(-20 -669.78)"><rect class="a" width="32.03" height="32.03" transform="translate(20 669.78)"/><path class="b" d="M36.024,675.868l-5.646,6.775a1.334,1.334,0,0,1-2.05-1.708L35,672.93a1.334,1.334,0,0,1,2.05,0l6.671,8.005a1.334,1.334,0,0,1-2.05,1.708Z"/><path class="b" d="M45.93,697.81H26.09a3,3,0,0,1-3-3V682.78a1,1,0,0,1,1-1H47.93a1,1,0,0,1,1,1v12.03A3,3,0,0,1,45.93,697.81ZM36.02,687.13a2.67,2.67,0,1,0,2.67,2.669A2.672,2.672,0,0,0,36.02,687.13Z"/></g></svg>