<svg xmlns="http://www.w3.org/2000/svg" width="32.03" height="32" viewBox="0 0 32.03 32"><defs><style>.a{fill:rgba(0,0,0,0);}.b{fill:#c3c6d1;}</style></defs><g transform="translate(-20 -413.62)"><rect class="a" width="32.03" height="32" transform="translate(20 413.62)"/><path class="b" d="M49,442.319a.849.849,0,0,1-.544-.3l-4.4-4.4H27.03a3,3,0,0,1-3-3v-14a3,3,0,0,1,3-3H46.37a3,3,0,0,1,3,3v13.015l.029-.012v8.006C49.4,442.061,49.25,442.319,49,442.319Zm-5.64-16.7a2,2,0,1,0,2,2A2,2,0,0,0,43.36,425.62Zm-6.67,0a2,2,0,1,0,2,2A2,2,0,0,0,36.69,425.62Zm-6.67,0a2,2,0,1,0,2,2A2,2,0,0,0,30.02,425.62Z"/></g></svg>