<svg xmlns="http://www.w3.org/2000/svg" xmlns:xlink="http://www.w3.org/1999/xlink" width="219.389" height="112.068" viewBox="0 0 219.389 112.068"><defs><style>.a{fill:none;stroke:#707070;stroke-linecap:round;stroke-linejoin:round;stroke-width:2px;}.b{filter:url(#a);}</style><filter id="a" x="0" y="0" width="219.389" height="112.068" filterUnits="userSpaceOnUse"><feOffset dy="5" input="SourceAlpha"/><feGaussianBlur stdDeviation="5" result="b"/><feFlood flood-color="#a2a9b8"/><feComposite operator="in" in2="b"/><feComposite in="SourceGraphic"/></filter></defs><g transform="translate(-830.937 -752.177)"><g class="b" transform="matrix(1, 0, 0, 1, 830.94, 752.18)"><path class="a" d="M1034.025,839.719s-9.457-23.514-14.606-23.514-5.851-24.177-11.369-24.177-6.874,22.793-13.755,22.793-8.027-51.644-12.212-51.644-2.319,29.091-9.882,28.851-6.764-7.19-15.971-7.19-26.527,38.639-36.6,38.639-7.72-8.656-15.078-8.656-4.334,26.621-19.7,24.9-10.272-15.489-16.357-16.243c-4.638-.575-3,16.243-7.142,16.243s-3.131-6.834-6.137-6.834-1.944,12.417-7.982,10.043" transform="translate(-830.94 -752.18)"/></g></g></svg>