<svg xmlns="http://www.w3.org/2000/svg" xmlns:xlink="http://www.w3.org/1999/xlink" width="186.809" height="93.38" viewBox="0 0 186.809 93.38"><defs><style>.a{fill:url(#a);}</style><linearGradient id="a" x1="0.5" y1="1" x2="0.5" gradientUnits="objectBoundingBox"><stop offset="0" stop-color="#0275ce"/><stop offset="1" stop-color="#4fcbf6"/></linearGradient></defs><g transform="translate(-847.22 -452.31)"><path class="a" d="M1029.84,545.69a2.5,2.5,0,0,1-2.5-2.5V501.5a2.5,2.5,0,0,1,2.5-2.5h1.689a2.5,2.5,0,0,1,2.5,2.5v41.69a2.5,2.5,0,0,1-2.5,2.5Zm-20-1.31a2.5,2.5,0,0,1-2.5-2.5V465.47a2.5,2.5,0,0,1,2.5-2.5h1.661a2.5,2.5,0,0,1,2.5,2.5v76.41a2.5,2.5,0,0,1-2.5,2.5Zm-20.029,0a2.5,2.5,0,0,1-2.5-2.5V485.5a2.5,2.5,0,0,1,2.5-2.5h1.69a2.5,2.5,0,0,1,2.5,2.5V541.88a2.5,2.5,0,0,1-2.5,2.5Zm-40,0a2.5,2.5,0,0,1-2.5-2.5V472.16a2.5,2.5,0,0,1,2.5-2.5h1.66a2.5,2.5,0,0,1,2.5,2.5v69.72a2.5,2.5,0,0,1-2.5,2.5Zm-60.06,0a2.5,2.5,0,0,1-2.5-2.5V472.16a2.5,2.5,0,0,1,2.5-2.5h1.69a2.5,2.5,0,0,1,2.5,2.5v69.72a2.5,2.5,0,0,1-2.5,2.5Zm-20,0a2.5,2.5,0,0,1-2.5-2.5V496.16a2.5,2.5,0,0,1,2.5-2.5h1.66a2.5,2.5,0,0,1,2.5,2.5v45.72a2.5,2.5,0,0,1-2.5,2.5Zm-20.03,0a2.5,2.5,0,0,1-2.5-2.5V472.16a2.5,2.5,0,0,1,2.5-2.5h1.69a2.5,2.5,0,0,1,2.5,2.5v69.72a2.5,2.5,0,0,1-2.5,2.5Zm120.091-.01a2.5,2.5,0,0,1-2.5-2.5V460.12a2.5,2.5,0,0,1,2.5-2.5H971.5a2.5,2.5,0,0,1,2.5,2.5V541.87a2.5,2.5,0,0,1-2.5,2.5Zm-40.03,0a2.5,2.5,0,0,1-2.5-2.5V454.81a2.5,2.5,0,0,1,2.5-2.5h1.69a2.5,2.5,0,0,1,2.5,2.5V541.87a2.5,2.5,0,0,1-2.5,2.5Zm-20,0a2.5,2.5,0,0,1-2.5-2.5V506.84a2.5,2.5,0,0,1,2.5-2.5h1.66a2.5,2.5,0,0,1,2.5,2.5v35.03a2.5,2.5,0,0,1-2.5,2.5Z"/></g></svg>