<svg xmlns="http://www.w3.org/2000/svg" width="32" height="32.03" viewBox="0 0 32 32.03"><defs><style>.a{fill:rgba(0,0,0,0);}.b,.c{fill:#007de4;}.c{opacity:0.302;}</style></defs><g transform="translate(-1695.81 -152.09)"><rect class="a" width="32" height="32.03" transform="translate(1695.81 152.09)"/><rect class="b" width="21" height="4" rx="1.5" transform="translate(1701 159)"/><path class="c" d="M1702.5,175.99a1.5,1.5,0,0,1-1.5-1.5v-1.12a1.5,1.5,0,0,1,1.5-1.5h18a1.5,1.5,0,0,1,1.5,1.5v1.12a1.5,1.5,0,0,1-1.5,1.5Zm0-6.86a1.5,1.5,0,0,1-1.5-1.5V166.5a1.5,1.5,0,0,1,1.5-1.5h18a1.5,1.5,0,0,1,1.5,1.5v1.13a1.5,1.5,0,0,1-1.5,1.5Z"/></g></svg>